<svg id="Camada_1" data-name="Camada 1" xmlns="http://www.w3.org/2000/svg" xmlns:xlink="http://www.w3.org/1999/xlink" viewBox="0 0 632.4 576.82"><defs><style>.cls-1,.cls-3{fill:none;}.cls-2{clip-path:url(#clip-path);}.cls-3{stroke:#000;stroke-miterlimit:3.99;stroke-width:3.99px;}</style><clipPath id="clip-path" transform="translate(-6.7 -9.35)"><rect class="cls-1" x="6.44" y="9.35" width="632.89" height="577.01"/></clipPath></defs><g class="cls-2"><path d="M604.63,9.35H41.18A34.5,34.5,0,0,0,6.7,43.79V401.43a34.49,34.49,0,0,0,34.48,34.43H392.33a99.06,99.06,0,0,0,15.6,32.32,322.11,322.11,0,0,0-44.19,90.24,5,5,0,0,0,7.47,5.74c7.73-4.86,30.32-16.84,41.63-14.06,9.79,2.42,21.09,21.52,25.92,33a5,5,0,0,0,4.63,3.07,4.92,4.92,0,0,0,.84-.07,5,5,0,0,0,4.17-4.64,162.73,162.73,0,0,1,22.66-73.83,94.56,94.56,0,0,0,34.75,0,163.11,163.11,0,0,1,22.67,73.83,5,5,0,0,0,9.63,1.64c4.83-11.48,16.13-30.58,25.92-33,11.36-2.79,33.9,9.2,41.64,14.07a5,5,0,0,0,7.47-5.75,322.55,322.55,0,0,0-44.2-90.24,99,99,0,0,0,15.6-32.32h20.09a34.49,34.49,0,0,0,34.47-34.43V43.79A34.49,34.49,0,0,0,604.63,9.35ZM488.43,310a99.82,99.82,0,0,0-97.87,80.72H52V54.46H593.83V390.75H586.3A99.81,99.81,0,0,0,488.43,310ZM440.2,564c-5.91-9.8-14.71-21.07-24.95-23.6-11.2-2.78-27.1,3.51-37.87,8.88a308.91,308.91,0,0,1,37.14-73,99.77,99.77,0,0,0,46.27,29A172.13,172.13,0,0,0,440.2,564ZM398.74,409.63a89.69,89.69,0,1,1,89.69,89.58A89.74,89.74,0,0,1,398.74,409.63ZM599.48,549.27c-10.76-5.38-26.64-11.67-37.87-8.89-10.25,2.53-19,13.8-25,23.6a171.93,171.93,0,0,0-20.59-58.71,99.8,99.8,0,0,0,46.27-29A308.14,308.14,0,0,1,599.48,549.27Zm29.58-147.84a24.44,24.44,0,0,1-24.43,24.4H586.72a99.37,99.37,0,0,0,1.44-16.2c0-3-.19-5.94-.45-8.86h11.14a5,5,0,0,0,5-5V49.45a5,5,0,0,0-5-5H47a5,5,0,0,0-5,5V395.76a5,5,0,0,0,5,5h342.2c-.26,2.93-.45,5.87-.45,8.86a99.37,99.37,0,0,0,1.44,16.2h-349a24.45,24.45,0,0,1-24.44-24.4V43.79A24.46,24.46,0,0,1,41.18,19.38H604.63a24.45,24.45,0,0,1,24.43,24.41Z" transform="translate(-6.7 -9.35)"/></g><path d="M165.75,132.23H477.57a5,5,0,0,0,5-5V81.84a5,5,0,0,0-5-5H165.75a5,5,0,0,0-5,5v45.37A5,5,0,0,0,165.75,132.23Zm5-45.38H472.56V122.2H170.77Z" transform="translate(-6.7 -9.35)"/><path d="M538.61,185.54H118.42a5,5,0,0,0,0,10H538.61a5,5,0,1,0,0-10Z" transform="translate(-6.7 -9.35)"/><path d="M264.64,245.66a5,5,0,1,0,0-10H155.33a5,5,0,1,0,0,10Z" transform="translate(-6.7 -9.35)"/><path d="M514,235.64H341a5,5,0,1,0,0,10H514a5,5,0,1,0,0-10Z" transform="translate(-6.7 -9.35)"/><path d="M301.35,325.05c-12.79-4.93-30.38-4.21-49.22,2.1,4-13.42-1.39-18.75-5-20.74-3.15-1.74-9.61-5.32-51.45,19.09,7.14-14.49,6.26-20.6,4.89-24a9.92,9.92,0,0,0-6.39-5.86c-22.48-7.16-71.25,44.69-80.8,55.16a5,5,0,0,0,7.42,6.75c21.94-24.06,58.28-56.2,70.43-52.35,0,0,2,3.8-6.31,19.25a8.83,8.83,0,0,0,12.31,11.74c30.11-17.85,42.67-21.58,45-21,1.95,1.08,1.32,5.68.07,9.63a9.49,9.49,0,0,0,2.39,9.59,9.73,9.73,0,0,0,9.84,2.3c17.13-5.62,32.46-6.42,43.16-2.3a5,5,0,1,0,3.62-9.35Z" transform="translate(-6.7 -9.35)"/><path d="M488.43,332.8a76.84,76.84,0,1,0,76.92,76.83A77,77,0,0,0,488.43,332.8Zm0,143.64a66.81,66.81,0,1,1,66.88-66.81A66.92,66.92,0,0,1,488.43,476.44Z" transform="translate(-6.7 -9.35)"/><path d="M538.07,388.62a5,5,0,0,0-4.59-3H504.6l-11.7-22.91c-1.71-3.36-7.22-3.36-8.94,0l-11.69,22.91H443.39a5,5,0,0,0-3.7,8.4l20.38,22.19L448.78,444a5,5,0,0,0,7,6.33l32.69-17,32.69,17a5,5,0,0,0,7-6.33l-11.29-27.79L537.2,394A5,5,0,0,0,538.07,388.62Zm-30.82,23.15a5,5,0,0,0-.95,5.27l7.36,18.1-22.9-11.92a5,5,0,0,0-4.65,0l-22.9,11.93,7.35-18.1a5,5,0,0,0-.95-5.28l-14.8-16.12h20.54a5,5,0,0,0,4.47-2.74L488.45,376l8.62,16.88a5,5,0,0,0,4.47,2.74h20.54Z" transform="translate(-6.7 -9.35)"/><path class="cls-3" d="M58.29,48.09H250" transform="translate(-6.7 -9.35)"/></svg>