<svg id="Camada_1" data-name="Camada 1" xmlns="http://www.w3.org/2000/svg" xmlns:xlink="http://www.w3.org/1999/xlink" viewBox="0 0 659.04 659.23"><defs><style>.cls-1,.cls-3{fill:none;}.cls-2{clip-path:url(#clip-path);}.cls-3{stroke:#000;stroke-width:4px;}</style><clipPath id="clip-path" transform="translate(-6 -4.13)"><rect class="cls-1" x="78" y="4.13" width="422.67" height="190.27"/></clipPath></defs><path d="M448.4,570.76v20.57H469a30.4,30.4,0,0,0,11.83-2.57l-14.92-18Z" transform="translate(-6 -4.13)"/><g class="cls-2"><path d="M98.59,35.76a10.32,10.32,0,0,1,10.3-10.29H469a10.32,10.32,0,0,1,10.29,10.29v138.9a195.75,195.75,0,0,1,19,17c.51.52,1,1,1.54,1.54V35.76A31,31,0,0,0,469,4.9H108.89A31,31,0,0,0,78,35.76V56.34H98.59Z" transform="translate(-6 -4.13)"/></g><path d="M641.31,549.15,530.19,456.56c-3.6,5.65-7.2,11.83-11.31,17l12.34,10.29L485.44,529.6l-10.29-12.34a161.31,161.31,0,0,1-17,11.31l92.59,111.12a64.34,64.34,0,0,0,46.3,23.15,65.89,65.89,0,0,0,41.15-12.34c17-12.35,27.78-34,26.75-55.56A67.77,67.77,0,0,0,641.31,549.15Zm-143-3.6,48.36-48.35,20.57,17-52,52ZM631,629.92a44.2,44.2,0,0,1-33.44,12.86,43.09,43.09,0,0,1-31.38-15.44l-37.55-44.75,54.53-54.53,44.75,37.56c9.78,7.71,14.92,19,15.43,31.38A41.47,41.47,0,0,1,631,629.92Z" transform="translate(-6 -4.13)"/><path d="M78,575.9H355.81a10.32,10.32,0,0,0,10.28-10.28,9.91,9.91,0,0,0-2-6.18c-6.18.51-12.35,1-18.52,1a202.23,202.23,0,0,1-46.3-5.15H78a10.29,10.29,0,1,0,0,20.58Z" transform="translate(-6 -4.13)"/><path d="M78,498.74H194.28l-1.55-1.54a195.85,195.85,0,0,1-17-19H78a10.29,10.29,0,1,0,0,20.58Z" transform="translate(-6 -4.13)"/><path d="M78,421.58h65.84c-2.57-6.69-4.63-13.38-6.68-20.58H78a10.29,10.29,0,1,0,0,20.58Z" transform="translate(-6 -4.13)"/><path d="M78,344.41h51.44c0-6.69.51-13.88,1-20.57H78a10.29,10.29,0,1,0,0,20.57Z" transform="translate(-6 -4.13)"/><path d="M78,267.25h65.84a148.07,148.07,0,0,1,9.27-20.58H78a10.29,10.29,0,1,0,0,20.58Z" transform="translate(-6 -4.13)"/><path d="M78,184.94H199.94a200.83,200.83,0,0,1,26.23-20.57H78a10.29,10.29,0,1,0,0,20.57Z" transform="translate(-6 -4.13)"/><path d="M407.24,632.49A10.31,10.31,0,0,1,397,642.78H36.86a10.32,10.32,0,0,1-10.28-10.29V107.78A10.32,10.32,0,0,1,36.86,97.49H397a10.31,10.31,0,0,1,10.28,10.29v29.84c7.21,2,13.9,4.63,20.58,7.2v-37A31,31,0,0,0,397,76.92H36.86A31,31,0,0,0,6,107.78V632.49a31,31,0,0,0,30.86,30.86H397a31,31,0,0,0,30.86-30.86V544c-6.68,2.57-13.37,5.14-20.58,7.2Z" transform="translate(-6 -4.13)"/><path d="M483.9,206c-76.14-76.14-200.11-76.14-276.25,0s-76.13,200.11,0,276.24c37.55,38.58,88,57.61,137.87,57.61a195.53,195.53,0,0,0,138.38-57.1C560,406.66,560,282.17,483.9,206ZM222.06,467.88c-68.42-67.91-68.42-179,0-246.93A174.78,174.78,0,0,1,469,468.39C401.07,536.29,290,536.29,222.06,467.88Z" transform="translate(-6 -4.13)"/><path d="M428.34,264.16c-4.63-3.08-11.32-2.06-14.41,2.57L320.82,401,275,360.88a10.21,10.21,0,1,0-13.37,15.43l54.52,47.84a10.87,10.87,0,0,0,6.69,2.57h1a11.21,11.21,0,0,0,7.2-4.12l99.8-144A10,10,0,0,0,428.34,264.16Z" transform="translate(-6 -4.13)"/><path class="cls-3" d="M144.81,6.13h59" transform="translate(-6 -4.13)"/></svg>