<svg id="Camada_1" data-name="Camada 1" xmlns="http://www.w3.org/2000/svg" xmlns:xlink="http://www.w3.org/1999/xlink" viewBox="0 0 635.43 799.7"><defs><style>.cls-1,.cls-4{fill:none;}.cls-2{clip-path:url(#clip-path);}.cls-3{clip-path:url(#clip-path-2);}.cls-4{stroke:#000;stroke-width:4px;}</style><clipPath id="clip-path" transform="translate(-11.7 -7.83)"><rect class="cls-1" x="557.67" y="261.06" width="89.04" height="36"/></clipPath><clipPath id="clip-path-2" transform="translate(-11.7 -7.83)"><rect class="cls-1" x="11.7" y="261.06" width="89.96" height="36"/></clipPath></defs><path d="M326.26,96.63A17.34,17.34,0,0,1,309,79.34V25.13a17.3,17.3,0,0,1,34.6,0V79.34A17.34,17.34,0,0,1,326.26,96.63Z" transform="translate(-11.7 -7.83)"/><g class="cls-2"><path d="M629.83,296.19H575.59a17.3,17.3,0,1,1,0-34.59h54.24a17.3,17.3,0,1,1,0,34.59Z" transform="translate(-11.7 -7.83)"/></g><g class="cls-3"><path d="M83.25,296.19H29a17.3,17.3,0,1,1,0-34.59H83.25a17.3,17.3,0,1,1,0,34.59Z" transform="translate(-11.7 -7.83)"/></g><path d="M151.07,170.81a17.23,17.23,0,0,1-12.19-5.1l-38.33-38.3A17.31,17.31,0,0,1,125,102.94l38.33,38.31a17.32,17.32,0,0,1,0,24.46A17.62,17.62,0,0,1,151.07,170.81Z" transform="translate(-11.7 -7.83)"/><path d="M505.34,170.81a17.33,17.33,0,0,1-12.2-29.56l38.33-38.31A17.31,17.31,0,0,1,556,127.41l-38.32,38.3A17.32,17.32,0,0,1,505.34,170.81Z" transform="translate(-11.7 -7.83)"/><path d="M441,583.85H221.23a17.35,17.35,0,0,1-17.3-17.29v-9.43c0-37.44-12.72-74.53-36.76-107.38A201.28,201.28,0,0,1,128,330,203.19,203.19,0,0,1,344.08,127.41C449,134,532.51,221.48,534.23,326.62a200.49,200.49,0,0,1-42.3,127.45c-21.63,28-33.57,64.76-33.57,103.49v9.09A17.34,17.34,0,0,1,441,583.85ZM238.45,549.27H423.93c1.65-43.32,15.92-84.39,40.66-116.38a166.8,166.8,0,0,0,35.13-105.75C498.24,239.9,429,167.27,342,161.91a168.41,168.41,0,0,0-146.9,267.43C221.84,465.91,236.72,507.25,238.45,549.27Z" transform="translate(-11.7 -7.83)"/><path d="M443.05,650.51H219.24a17.29,17.29,0,1,1,0-34.58H443a17.29,17.29,0,0,1,.09,34.58Z" transform="translate(-11.7 -7.83)"/><path d="M331.1,807.53a99.49,99.49,0,0,1-99.4-99.35V695A17.35,17.35,0,0,1,249,677.66H413.12A17.34,17.34,0,0,1,430.42,695v13.23A99.31,99.31,0,0,1,331.1,807.53Zm-64.62-95.28a64.75,64.75,0,0,0,129.25,0Z" transform="translate(-11.7 -7.83)"/><path d="M364.41,583.85H297.89a17.24,17.24,0,0,1-16.79-13.06L232.31,376.6a17.31,17.31,0,0,1,25.78-19l30.1,18.25L315.79,322a17.3,17.3,0,0,1,30.8,0l27.6,53.78,30.11-18.25a17.3,17.3,0,0,1,25.77,19L381.28,570.79A17.4,17.4,0,0,1,364.41,583.85Zm-53-34.58H351L386.21,409l-9.94,6.05a17.31,17.31,0,0,1-13.68,1.9,17.67,17.67,0,0,1-10.72-8.72l-20.68-40.38-20.67,40.38a17.32,17.32,0,0,1-24.4,6.82L276.17,409Z" transform="translate(-11.7 -7.83)"/><path class="cls-4" d="M327,67.62,324,10.69" transform="translate(-11.7 -7.83)"/></svg>