<svg id="Camada_1" data-name="Camada 1" xmlns="http://www.w3.org/2000/svg" xmlns:xlink="http://www.w3.org/1999/xlink" viewBox="0 0 535.29 503.54"><defs><style>.cls-1,.cls-3{fill:none;}.cls-2{clip-path:url(#clip-path);}.cls-3{stroke:#000;stroke-miterlimit:4;stroke-width:4px;}</style><clipPath id="clip-path" transform="translate(-9.07 -8.24)"><rect class="cls-1" x="9.07" y="9.06" width="388.26" height="503.7"/></clipPath></defs><g class="cls-2"><path d="M373,511.79H32.55a22,22,0,0,1-2.29-.12c-.77-.08-1.53-.19-2.29-.34s-1.49-.34-2.23-.56-1.46-.49-2.17-.78-1.4-.62-2.08-1a21.82,21.82,0,0,1-2-1.18,23.75,23.75,0,0,1-5.11-4.64c-.48-.59-.94-1.21-1.37-1.85s-.82-1.3-1.19-2-.68-1.37-1-2.08-.55-1.44-.78-2.17-.41-1.48-.56-2.24-.26-1.51-.34-2.28-.11-1.53-.12-2.3V33.3c0-.77,0-1.54.12-2.31s.19-1.53.34-2.28.34-1.5.56-2.24.48-1.45.78-2.17.62-1.4,1-2.08.76-1.34,1.19-2,.89-1.26,1.37-1.85A23,23,0,0,1,16,16.68c.55-.54,1.11-1.06,1.71-1.55a20.55,20.55,0,0,1,1.85-1.37,21.92,21.92,0,0,1,2-1.19c.68-.36,1.37-.69,2.08-1S25,11,25.74,10.8A22,22,0,0,1,28,10.25a22.21,22.21,0,0,1,2.29-.35c.76-.07,1.53-.11,2.29-.11H373c.76,0,1.53,0,2.29.11a21.62,21.62,0,0,1,2.28.35c.75.15,1.5.33,2.24.55s1.45.49,2.16.78,1.41.63,2.08,1a22.08,22.08,0,0,1,2,1.19,20.55,20.55,0,0,1,1.85,1.37c.59.49,1.16,1,1.7,1.55a19.28,19.28,0,0,1,1.55,1.71,22.78,22.78,0,0,1,1.38,1.85c.42.64.82,1.3,1.18,2s.69,1.37,1,2.08a22.54,22.54,0,0,1,.78,2.17c.22.74.41,1.48.56,2.24a21.6,21.6,0,0,1,.34,2.28c.08.77.11,1.54.12,2.31V328.37a5.45,5.45,0,0,1-1.64,3.95L331,396.23l25.09,25.16L387,390.46a5.49,5.49,0,0,1,1.32-1,5.59,5.59,0,0,1,3.18-.63,5,5,0,0,1,1.58.4,5.6,5.6,0,0,1,1.41.84,5.51,5.51,0,0,1,1.1,1.21,6.16,6.16,0,0,1,.7,1.49,5.52,5.52,0,0,1,.23,1.62v93.86c0,.77,0,1.54-.11,2.3s-.19,1.53-.34,2.29-.34,1.5-.56,2.23-.49,1.46-.78,2.17a21,21,0,0,1-1,2.09c-.36.68-.76,1.34-1.18,2s-.89,1.25-1.37,1.85-1,1.16-1.56,1.71-1.11,1.06-1.7,1.55-1.21.94-1.85,1.37a22.08,22.08,0,0,1-2,1.19c-.68.36-1.37.69-2.08,1s-1.43.55-2.17.77a21.57,21.57,0,0,1-2.24.56c-.75.15-1.51.26-2.27.34A22.29,22.29,0,0,1,373,511.79ZM32.55,20.94a12.06,12.06,0,0,0-2.4.24,12.32,12.32,0,0,0-2.31.7A11.52,11.52,0,0,0,25.71,23a11.37,11.37,0,0,0-1.87,1.53,12.49,12.49,0,0,0-1.53,1.87,12.1,12.1,0,0,0-1.14,2.13,13.24,13.24,0,0,0-.71,2.32,12.84,12.84,0,0,0-.23,2.4v455a12.84,12.84,0,0,0,.23,2.4,13.24,13.24,0,0,0,.71,2.32,12.46,12.46,0,0,0,1.14,2.13A12,12,0,0,0,23.84,497a13.2,13.2,0,0,0,1.87,1.54,13.58,13.58,0,0,0,2.13,1.14,12.32,12.32,0,0,0,2.31.7,12.06,12.06,0,0,0,2.4.24H373a12.21,12.21,0,0,0,2.4-.24,12.55,12.55,0,0,0,2.31-.7,14,14,0,0,0,2.13-1.14,13.12,13.12,0,0,0,1.86-1.54,12,12,0,0,0,1.54-1.87,12.22,12.22,0,0,0,1.84-4.45,13.75,13.75,0,0,0,.24-2.4V407.88L360,433.23a5.55,5.55,0,0,1-7.88,0l-33-33.05a5.76,5.76,0,0,1-.7-.85,5.68,5.68,0,0,1-.83-2,5.94,5.94,0,0,1,0-2.17,5.68,5.68,0,0,1,.83-2,5.76,5.76,0,0,1,.7-.85l66.15-66.23V33.28a13.75,13.75,0,0,0-.24-2.4,12.41,12.41,0,0,0-.7-2.32,12.1,12.1,0,0,0-1.14-2.13,12,12,0,0,0-1.54-1.87A11.3,11.3,0,0,0,379.85,23a11.85,11.85,0,0,0-2.13-1.15,12.55,12.55,0,0,0-2.31-.7,12.21,12.21,0,0,0-2.4-.24Z" transform="translate(-9.07 -8.24)"/></g><path d="M76.89,101A5.37,5.37,0,0,1,73,99.35L63,89.4a5.79,5.79,0,0,1-.72-.85,5.07,5.07,0,0,1-.53-1,5.59,5.59,0,0,1-.34-1,5.79,5.79,0,0,1-.12-1.1,6,6,0,0,1,.1-1.11,5.53,5.53,0,0,1,.32-1,5.35,5.35,0,0,1,.51-1,5.84,5.84,0,0,1,.7-.86,6.41,6.41,0,0,1,.86-.7,5.73,5.73,0,0,1,1-.52,4.86,4.86,0,0,1,1-.31,5.21,5.21,0,0,1,1.11-.1,5.15,5.15,0,0,1,1.1.12,4.92,4.92,0,0,1,1,.33,5.44,5.44,0,0,1,1,.54,5.64,5.64,0,0,1,.84.71l6,6L92.15,72.23a4.56,4.56,0,0,1,.85-.67,5.16,5.16,0,0,1,1-.5,4.75,4.75,0,0,1,1-.3,5.46,5.46,0,0,1,1.07-.1,4.83,4.83,0,0,1,1.08.12,5.11,5.11,0,0,1,1,.31A5.52,5.52,0,0,1,100,72.3a6.2,6.2,0,0,1,.69.83,5.79,5.79,0,0,1,.51,1,5.66,5.66,0,0,1,.32,1,5.47,5.47,0,0,1,.11,1.07,6.38,6.38,0,0,1-.09,1.08,5.41,5.41,0,0,1-.31,1,5.19,5.19,0,0,1-.49,1,6,6,0,0,1-.67.84L80.83,99.35A5.37,5.37,0,0,1,76.89,101Z" transform="translate(-9.07 -8.24)"/><path d="M106.05,120.73H57a10,10,0,0,1-2-.2,10.32,10.32,0,0,1-1.94-.59,10.11,10.11,0,0,1-1.81-1,10.23,10.23,0,0,1-1.57-1.3,10.35,10.35,0,0,1-1.29-1.58,9.17,9.17,0,0,1-1-1.8,10.2,10.2,0,0,1-.59-2,9.92,9.92,0,0,1-.21-2v-49a11.67,11.67,0,0,1,.21-2,11.15,11.15,0,0,1,.6-1.94,10.37,10.37,0,0,1,1-1.8,9.77,9.77,0,0,1,1.3-1.57,9.28,9.28,0,0,1,1.58-1.29,9.93,9.93,0,0,1,1.79-1,10.23,10.23,0,0,1,2-.6,10.58,10.58,0,0,1,2-.19h49.06a9.84,9.84,0,0,1,2,.2,10.2,10.2,0,0,1,1.95.59,10.41,10.41,0,0,1,3.37,2.26,10.35,10.35,0,0,1,1.29,1.58,10.65,10.65,0,0,1,1,1.79,10.08,10.08,0,0,1,.59,2,10.59,10.59,0,0,1,.2,2v49.05a10,10,0,0,1-.21,2,10.65,10.65,0,0,1-.59,2,11.15,11.15,0,0,1-1,1.8,10.23,10.23,0,0,1-1.3,1.57,9.78,9.78,0,0,1-1.58,1.29,10.37,10.37,0,0,1-1.8,1,10.08,10.08,0,0,1-2,.59A10.65,10.65,0,0,1,106.05,120.73ZM57.76,109.57H105.3V62H57.76Z" transform="translate(-9.07 -8.24)"/><path d="M353.37,76.62H148.58a5.68,5.68,0,0,1-1.09-.11,5.53,5.53,0,0,1-1.05-.32,5.89,5.89,0,0,1-1-.51,6,6,0,0,1-1.54-1.54,6,6,0,0,1-.51-1,5.53,5.53,0,0,1-.32-1A5.68,5.68,0,0,1,143,71a5.76,5.76,0,0,1,.11-1.09,5.23,5.23,0,0,1,.32-1,5.6,5.6,0,0,1,.51-1,6.32,6.32,0,0,1,.7-.85,6.16,6.16,0,0,1,.84-.69,5.89,5.89,0,0,1,1-.51,4.89,4.89,0,0,1,1.05-.32,5,5,0,0,1,1.09-.11H353.37a5,5,0,0,1,1.09.11,4.89,4.89,0,0,1,1.05.32,5.89,5.89,0,0,1,1,.51,5.15,5.15,0,0,1,.84.69,6.32,6.32,0,0,1,.7.85,5.6,5.6,0,0,1,.51,1,5.23,5.23,0,0,1,.32,1A5.76,5.76,0,0,1,359,71a5.68,5.68,0,0,1-.11,1.09,5.53,5.53,0,0,1-.32,1,6,6,0,0,1-.51,1,6.24,6.24,0,0,1-.7.84,5.2,5.2,0,0,1-.84.7,5.89,5.89,0,0,1-1,.51,5.53,5.53,0,0,1-1.05.32A5.68,5.68,0,0,1,353.37,76.62Z" transform="translate(-9.07 -8.24)"/><path d="M353.37,106.14H148.58a6.59,6.59,0,0,1-1.09-.1,6.36,6.36,0,0,1-1.05-.32,5.25,5.25,0,0,1-1-.52,5.5,5.5,0,0,1-.84-.69,6.32,6.32,0,0,1-.7-.85,5.89,5.89,0,0,1-.51-1,5.53,5.53,0,0,1-.32-1,5.46,5.46,0,0,1,0-2.18,5.68,5.68,0,0,1,.83-2,5.76,5.76,0,0,1,.7-.85,5.5,5.5,0,0,1,.84-.69,5.25,5.25,0,0,1,1-.52,6.36,6.36,0,0,1,1.05-.32,5.67,5.67,0,0,1,1.09-.1H353.37a5.67,5.67,0,0,1,1.09.1,6.36,6.36,0,0,1,1.05.32,5.25,5.25,0,0,1,1,.52,4.68,4.68,0,0,1,.84.69,5.76,5.76,0,0,1,.7.85,5.68,5.68,0,0,1,.83,2,5.46,5.46,0,0,1,0,2.18,5.53,5.53,0,0,1-.32,1,5.89,5.89,0,0,1-.51,1,6.32,6.32,0,0,1-.7.85,4.68,4.68,0,0,1-.84.69,5.25,5.25,0,0,1-1,.52,6.36,6.36,0,0,1-1.05.32A6.59,6.59,0,0,1,353.37,106.14Z" transform="translate(-9.07 -8.24)"/><path d="M76.89,215A5.41,5.41,0,0,1,73,213.37l-9.93-10a5.31,5.31,0,0,1-.72-.85,5,5,0,0,1-.53-1,5.46,5.46,0,0,1-.34-1.06,5.56,5.56,0,0,1,0-2.2,5.41,5.41,0,0,1,.32-1.06,6.08,6.08,0,0,1,.51-1,6.32,6.32,0,0,1,.7-.85,5.17,5.17,0,0,1,.86-.7,5.78,5.78,0,0,1,1-.53,5.5,5.5,0,0,1,1-.31,6,6,0,0,1,1.11-.1,5.88,5.88,0,0,1,1.1.12,5.59,5.59,0,0,1,1,.34,5.39,5.39,0,0,1,1,.53,5.71,5.71,0,0,1,.84.72l6,6,15.26-15.3a5.13,5.13,0,0,1,.85-.69,5.25,5.25,0,0,1,1-.52A6.36,6.36,0,0,1,95,184.7a5.41,5.41,0,0,1,2.17,0,6.36,6.36,0,0,1,1,.32,4.94,4.94,0,0,1,1,.52,5.13,5.13,0,0,1,.85.69,6.11,6.11,0,0,1,.69.85,5.34,5.34,0,0,1,.52,1,5.41,5.41,0,0,1,.31,1,5.46,5.46,0,0,1,0,2.18,4.89,4.89,0,0,1-.32,1,5.5,5.5,0,0,1-.51,1,5.13,5.13,0,0,1-.69.85L80.83,213.36A5.42,5.42,0,0,1,76.89,215Z" transform="translate(-9.07 -8.24)"/><path d="M106.05,234.74H57a10.77,10.77,0,0,1-2-.2,9.66,9.66,0,0,1-1.94-.6,9.5,9.5,0,0,1-1.81-1,10.28,10.28,0,0,1-2.86-2.87,9.78,9.78,0,0,1-1-1.8,10.2,10.2,0,0,1-.59-1.95,9.92,9.92,0,0,1-.21-2V175.27a9.92,9.92,0,0,1,.21-2,10.2,10.2,0,0,1,.59-2,9.55,9.55,0,0,1,1-1.81,10.77,10.77,0,0,1,1.29-1.57,10.23,10.23,0,0,1,1.57-1.3,10.11,10.11,0,0,1,1.81-1,10.32,10.32,0,0,1,1.94-.59,10,10,0,0,1,2-.21h49.06a9.85,9.85,0,0,1,2,.21,10.2,10.2,0,0,1,1.95.59,9.39,9.39,0,0,1,1.79,1,10.35,10.35,0,0,1,1.58,1.29,10.85,10.85,0,0,1,1.29,1.58,11.15,11.15,0,0,1,1,1.8,10.2,10.2,0,0,1,.59,2,10.66,10.66,0,0,1,.2,2v49.06a10.66,10.66,0,0,1-.2,2,11.36,11.36,0,0,1-.6,2,9.78,9.78,0,0,1-1,1.8,10.85,10.85,0,0,1-1.29,1.58,10.49,10.49,0,0,1-1.59,1.3,10.63,10.63,0,0,1-3.75,1.54A10.77,10.77,0,0,1,106.05,234.74ZM57.76,223.57H105.3V176H57.76Z" transform="translate(-9.07 -8.24)"/><path d="M353.37,190.63H148.58a5.68,5.68,0,0,1-1.09-.11,6.36,6.36,0,0,1-1.05-.32,5.25,5.25,0,0,1-1-.52,5.5,5.5,0,0,1-.84-.69,5.76,5.76,0,0,1-.7-.85,5.68,5.68,0,0,1-.83-2,5.46,5.46,0,0,1,0-2.18,5.44,5.44,0,0,1,.32-1,6,6,0,0,1,.51-1,6.32,6.32,0,0,1,.7-.85,5.5,5.5,0,0,1,.84-.69,5.89,5.89,0,0,1,1-.51,5.53,5.53,0,0,1,1.05-.32,5.68,5.68,0,0,1,1.09-.11H353.37a5.68,5.68,0,0,1,1.09.11,5.53,5.53,0,0,1,1.05.32,5.89,5.89,0,0,1,1,.51,4.68,4.68,0,0,1,.84.69,6.32,6.32,0,0,1,.7.85,6,6,0,0,1,.51,1,5.44,5.44,0,0,1,.32,1,5.46,5.46,0,0,1,0,2.18,5.68,5.68,0,0,1-.83,2,5.76,5.76,0,0,1-.7.85,4.68,4.68,0,0,1-.84.69,5.25,5.25,0,0,1-1,.52,6.36,6.36,0,0,1-1.05.32A5.68,5.68,0,0,1,353.37,190.63Z" transform="translate(-9.07 -8.24)"/><path d="M353.37,220.14H148.58a5.68,5.68,0,0,1-1.09-.11,5.53,5.53,0,0,1-1.05-.32,5.89,5.89,0,0,1-1-.51,6.16,6.16,0,0,1-.84-.69,6.32,6.32,0,0,1-.7-.85,6,6,0,0,1-.51-1,5.44,5.44,0,0,1-.32-1,5.76,5.76,0,0,1-.11-1.09,5.68,5.68,0,0,1,.11-1.09,5.53,5.53,0,0,1,.32-1.05,6,6,0,0,1,.51-1,6.24,6.24,0,0,1,.7-.84,5.5,5.5,0,0,1,.84-.69,5.25,5.25,0,0,1,1-.52,5.53,5.53,0,0,1,1.05-.32,5.68,5.68,0,0,1,1.09-.11H353.37a5.68,5.68,0,0,1,1.09.11,5.53,5.53,0,0,1,1.05.32,5.25,5.25,0,0,1,1,.52,4.68,4.68,0,0,1,.84.69,6.24,6.24,0,0,1,.7.84,6,6,0,0,1,.51,1,5.53,5.53,0,0,1,.32,1.05,5.68,5.68,0,0,1,.11,1.09,5.76,5.76,0,0,1-.11,1.09,5.44,5.44,0,0,1-.32,1,6,6,0,0,1-.51,1,6.32,6.32,0,0,1-.7.85,5.15,5.15,0,0,1-.84.69,5.89,5.89,0,0,1-1,.51,5.53,5.53,0,0,1-1.05.32A5.68,5.68,0,0,1,353.37,220.14Z" transform="translate(-9.07 -8.24)"/><path d="M76.89,329A5.37,5.37,0,0,1,73,327.37L63,317.42a5.71,5.71,0,0,1-.72-.84,5.39,5.39,0,0,1-.53-1,5.46,5.46,0,0,1-.34-1.06,5.56,5.56,0,0,1,0-2.2,5.86,5.86,0,0,1,.32-1.06,6.53,6.53,0,0,1,.51-1,6.32,6.32,0,0,1,.7-.85,5.72,5.72,0,0,1,.86-.7,5.11,5.11,0,0,1,1-.52,6.36,6.36,0,0,1,1-.32,6,6,0,0,1,1.11-.1,6.85,6.85,0,0,1,1.1.12,5.59,5.59,0,0,1,1,.34,5.39,5.39,0,0,1,1,.53,5.71,5.71,0,0,1,.84.72l6,6,15.26-15.29a4.56,4.56,0,0,1,.85-.67,5.16,5.16,0,0,1,1-.5,4.75,4.75,0,0,1,1-.3,5.46,5.46,0,0,1,1.07-.1,4.83,4.83,0,0,1,1.08.12,5.11,5.11,0,0,1,1,.31,6.83,6.83,0,0,1,1,.52,6,6,0,0,1,.83.69,6.2,6.2,0,0,1,.69.83,5.79,5.79,0,0,1,.51.95,5.66,5.66,0,0,1,.32,1,5.47,5.47,0,0,1,.11,1.07,6.38,6.38,0,0,1-.09,1.08,5.41,5.41,0,0,1-.31,1,5.19,5.19,0,0,1-.49,1,6,6,0,0,1-.67.84L80.83,327.37A5.37,5.37,0,0,1,76.89,329Z" transform="translate(-9.07 -8.24)"/><path d="M106.05,348.75H57a10.77,10.77,0,0,1-2-.2,11.15,11.15,0,0,1-1.94-.6,10,10,0,0,1-3.38-2.26,10.27,10.27,0,0,1-1.29-1.57,10.42,10.42,0,0,1-1-1.8,10.2,10.2,0,0,1-.59-1.95,11.67,11.67,0,0,1-.21-2V289.28a9.85,9.85,0,0,1,.21-2,10.52,10.52,0,0,1,.59-2,9.39,9.39,0,0,1,1-1.79,9.88,9.88,0,0,1,1.29-1.58,10.23,10.23,0,0,1,1.57-1.3,10.11,10.11,0,0,1,1.81-1,11.15,11.15,0,0,1,1.94-.6,10.76,10.76,0,0,1,2-.19h49.06a9.84,9.84,0,0,1,2,.2,10.2,10.2,0,0,1,1.95.59,10,10,0,0,1,1.79,1,10.14,10.14,0,0,1,2.87,2.87,10.74,10.74,0,0,1,1,1.8,10.2,10.2,0,0,1,.59,1.95,10.59,10.59,0,0,1,.2,2v49.05a10.69,10.69,0,0,1-.2,2,11,11,0,0,1-.6,1.95,10.15,10.15,0,0,1-1,1.81,10.27,10.27,0,0,1-1.29,1.57A10.49,10.49,0,0,1,110,348a10.08,10.08,0,0,1-2,.59A10.59,10.59,0,0,1,106.05,348.75ZM57.76,337.58H105.3V290H57.76Z" transform="translate(-9.07 -8.24)"/><path d="M353.37,304.63H148.58a5.68,5.68,0,0,1-1.09-.11,5.53,5.53,0,0,1-1.05-.32,5.89,5.89,0,0,1-1-.51,6,6,0,0,1-1.54-1.54,6,6,0,0,1-.51-1,5.53,5.53,0,0,1-.32-1.05A5.68,5.68,0,0,1,143,299a5.76,5.76,0,0,1,.11-1.09,5.44,5.44,0,0,1,.32-1,6,6,0,0,1,.51-1,6.32,6.32,0,0,1,.7-.85,6.16,6.16,0,0,1,.84-.69,5.89,5.89,0,0,1,1-.51,5.53,5.53,0,0,1,1.05-.32,5.68,5.68,0,0,1,1.09-.11H353.37a5.68,5.68,0,0,1,1.09.11,5.53,5.53,0,0,1,1.05.32,5.89,5.89,0,0,1,1,.51,5.15,5.15,0,0,1,.84.69,6.32,6.32,0,0,1,.7.85,6,6,0,0,1,.51,1,5.44,5.44,0,0,1,.32,1A5.76,5.76,0,0,1,359,299a5.68,5.68,0,0,1-.11,1.09,5.53,5.53,0,0,1-.32,1.05,6,6,0,0,1-.51,1,6.24,6.24,0,0,1-.7.84,5.2,5.2,0,0,1-.84.7,5.89,5.89,0,0,1-1,.51,5.53,5.53,0,0,1-1.05.32A5.68,5.68,0,0,1,353.37,304.63Z" transform="translate(-9.07 -8.24)"/><path d="M353.37,334.15H148.58a5.68,5.68,0,0,1-1.09-.11,4.89,4.89,0,0,1-1.05-.32,5.89,5.89,0,0,1-1-.51,6,6,0,0,1-1.54-1.54,6,6,0,0,1-.51-1,5.32,5.32,0,0,1-.32-1.05,5.68,5.68,0,0,1-.11-1.09,5.76,5.76,0,0,1,.11-1.09,5.66,5.66,0,0,1,.32-1,6,6,0,0,1,.51-1,6,6,0,0,1,1.54-1.54,5.89,5.89,0,0,1,1-.51,5.53,5.53,0,0,1,1.05-.32,5.68,5.68,0,0,1,1.09-.11H353.37a5.68,5.68,0,0,1,1.09.11,5.53,5.53,0,0,1,1.05.32,5.89,5.89,0,0,1,1,.51,5.2,5.2,0,0,1,.84.7,6.24,6.24,0,0,1,.7.84,6,6,0,0,1,.51,1,5.66,5.66,0,0,1,.32,1,5.76,5.76,0,0,1,.11,1.09,5.68,5.68,0,0,1-.11,1.09,5.32,5.32,0,0,1-.32,1.05,6,6,0,0,1-.51,1,6.24,6.24,0,0,1-.7.84,5.2,5.2,0,0,1-.84.7,5.89,5.89,0,0,1-1,.51,4.89,4.89,0,0,1-1.05.32A5.68,5.68,0,0,1,353.37,334.15Z" transform="translate(-9.07 -8.24)"/><path d="M76.89,443A5.37,5.37,0,0,1,73,441.38L63,431.43a5.31,5.31,0,0,1-.72-.85,5,5,0,0,1-.53-1,5.46,5.46,0,0,1-.34-1.06,5.56,5.56,0,0,1,0-2.2,5.63,5.63,0,0,1,.32-1.06,6.08,6.08,0,0,1,.51-1,6.32,6.32,0,0,1,.7-.85,5.17,5.17,0,0,1,.86-.7,5.11,5.11,0,0,1,1-.52,5.53,5.53,0,0,1,1-.32,6,6,0,0,1,1.11-.1A5.88,5.88,0,0,1,68,422a5.59,5.59,0,0,1,1,.34,5.39,5.39,0,0,1,1,.53,5.71,5.71,0,0,1,.84.72l6,6,15.26-15.29A5.56,5.56,0,0,1,96,412.8a5.44,5.44,0,0,1,2.06.44,5.57,5.57,0,0,1,3.39,5,5.86,5.86,0,0,1-.34,2.08,5.71,5.71,0,0,1-1.1,1.81L80.83,441.38A5.37,5.37,0,0,1,76.89,443Z" transform="translate(-9.07 -8.24)"/><path d="M106.05,462.76H57a10,10,0,0,1-2-.21,10.32,10.32,0,0,1-1.94-.59,10.11,10.11,0,0,1-1.81-1,10.65,10.65,0,0,1-2.86-2.87,10.34,10.34,0,0,1-1.56-3.76,9.92,9.92,0,0,1-.21-2v-49a9.85,9.85,0,0,1,.21-2,10.08,10.08,0,0,1,.59-2,9.78,9.78,0,0,1,1-1.8,10.28,10.28,0,0,1,2.86-2.87,10.11,10.11,0,0,1,1.81-1,9.66,9.66,0,0,1,1.94-.6,10.77,10.77,0,0,1,2-.2h49.06a10.59,10.59,0,0,1,2,.2,11,11,0,0,1,1.95.6,10.41,10.41,0,0,1,3.37,2.26,10.35,10.35,0,0,1,1.29,1.58,10.65,10.65,0,0,1,1,1.79,10.54,10.54,0,0,1,.79,4v49a10.66,10.66,0,0,1-.2,2,11.1,11.1,0,0,1-.6,2,9.78,9.78,0,0,1-1,1.8,10.35,10.35,0,0,1-1.29,1.58,10.49,10.49,0,0,1-1.59,1.3,9.69,9.69,0,0,1-1.8,1,10.2,10.2,0,0,1-2,.59A10.77,10.77,0,0,1,106.05,462.76ZM57.76,451.59H105.3V404H57.76Z" transform="translate(-9.07 -8.24)"/><path d="M289.49,418.64H148.58a5.68,5.68,0,0,1-1.09-.11,6.36,6.36,0,0,1-1.05-.32,5.25,5.25,0,0,1-1-.52,5.5,5.5,0,0,1-.84-.69,5.76,5.76,0,0,1-.7-.85,5.68,5.68,0,0,1-.83-2,5.68,5.68,0,0,1-.11-1.09,5.76,5.76,0,0,1,.11-1.09,5.44,5.44,0,0,1,.32-1,6,6,0,0,1,.51-1,7,7,0,0,1,.7-.85,6.16,6.16,0,0,1,.84-.69,5.89,5.89,0,0,1,1-.51,5.53,5.53,0,0,1,1.05-.32,5.68,5.68,0,0,1,1.09-.11H289.49a5.68,5.68,0,0,1,1.09.11,5.53,5.53,0,0,1,1.05.32,5.89,5.89,0,0,1,1,.51,5.15,5.15,0,0,1,.84.69,7,7,0,0,1,.7.85,6,6,0,0,1,.51,1,5.44,5.44,0,0,1,.32,1,5.76,5.76,0,0,1,.11,1.09,5.68,5.68,0,0,1-.11,1.09,5.68,5.68,0,0,1-.83,2,5.76,5.76,0,0,1-.7.85,4.68,4.68,0,0,1-.84.69,5.25,5.25,0,0,1-1,.52,6.36,6.36,0,0,1-1.05.32A5.68,5.68,0,0,1,289.49,418.64Z" transform="translate(-9.07 -8.24)"/><path d="M275.51,448.15H148.58a5,5,0,0,1-1.09-.11,4.89,4.89,0,0,1-1.05-.32,5.89,5.89,0,0,1-1-.51,6.16,6.16,0,0,1-.84-.69,6.32,6.32,0,0,1-.7-.85,5.6,5.6,0,0,1-.51-1,5.23,5.23,0,0,1-.32-1,5.76,5.76,0,0,1-.11-1.09,5.68,5.68,0,0,1,.11-1.09,5.53,5.53,0,0,1,.32-1.05,6,6,0,0,1,.51-1,6.24,6.24,0,0,1,.7-.84,5.5,5.5,0,0,1,.84-.69,5.25,5.25,0,0,1,1-.52,5.53,5.53,0,0,1,1.05-.32,5.68,5.68,0,0,1,1.09-.11H275.51a5.63,5.63,0,0,1,2.13.43,4.94,4.94,0,0,1,1,.52,5.13,5.13,0,0,1,.85.69,6.24,6.24,0,0,1,.7.84,6,6,0,0,1,.51,1,4.86,4.86,0,0,1,.31,1.05,5,5,0,0,1,.11,1.09,5,5,0,0,1-.11,1.09,4.62,4.62,0,0,1-.31,1,5.6,5.6,0,0,1-.51,1,6.32,6.32,0,0,1-.7.85,5.69,5.69,0,0,1-.85.69,5.5,5.5,0,0,1-1,.51,5.63,5.63,0,0,1-2.13.43Z" transform="translate(-9.07 -8.24)"/><path d="M356.08,434.87a5.35,5.35,0,0,1-3.94-1.64l-33-33.05a5.76,5.76,0,0,1-.7-.85,5.68,5.68,0,0,1-.83-2,5.94,5.94,0,0,1,0-2.17,5.68,5.68,0,0,1,.83-2,5.76,5.76,0,0,1,.7-.85L495,216.22a28.83,28.83,0,0,1,14.8-7.93,28.08,28.08,0,0,1,5.64-.54h0a27.29,27.29,0,0,1,4.23.32,29.14,29.14,0,0,1,18,10.27,29,29,0,0,1,2.44,3.48,30,30,0,0,1,1.91,3.8,28.88,28.88,0,0,1,1.32,4,28.23,28.23,0,0,1,.72,4.19,30,30,0,0,1,.11,4.24,29.68,29.68,0,0,1-.53,4.22,30.32,30.32,0,0,1-1.13,4.1,28.61,28.61,0,0,1-1.72,3.88,28.15,28.15,0,0,1-5,6.81L360,433.23A5.37,5.37,0,0,1,356.08,434.87ZM331,396.23l25.09,25.16L528,249.22a17.5,17.5,0,0,0,3.09-4.17,17.76,17.76,0,0,0-1.9-19.61,17.32,17.32,0,0,0-3.85-3.5,17.69,17.69,0,0,0-22.39,2.18Z" transform="translate(-9.07 -8.24)"/><path d="M520.92,269.81a5.31,5.31,0,0,1-3.94-1.63l-33-33a6.24,6.24,0,0,1-.7-.84,6,6,0,0,1-.51-1,5.53,5.53,0,0,1-.32-1,5.68,5.68,0,0,1-.11-1.09,5.63,5.63,0,0,1,.43-2.13,4.94,4.94,0,0,1,.52-1,5.13,5.13,0,0,1,.69-.85l11-11.06c.67-.66,1.37-1.3,2.1-1.9a26.87,26.87,0,0,1,2.28-1.69,26.05,26.05,0,0,1,2.43-1.46c.83-.45,1.69-.85,2.56-1.22s1.77-.68,2.67-1a28.3,28.3,0,0,1,2.75-.68,26.44,26.44,0,0,1,2.81-.42c.94-.09,1.88-.14,2.83-.14s1.89,0,2.83.14a26.25,26.25,0,0,1,2.8.42,28.3,28.3,0,0,1,2.75.68c.91.28,1.8.6,2.68,1a29.45,29.45,0,0,1,5,2.68,24.87,24.87,0,0,1,2.28,1.69c.73.6,1.43,1.23,2.1,1.9s1.3,1.37,1.9,2.1,1.17,1.5,1.69,2.28A26.21,26.21,0,0,1,541,223a27.33,27.33,0,0,1,1.21,2.57,28.31,28.31,0,0,1,1,2.67c.27.91.51,1.82.69,2.75s.32,1.87.41,2.81a27,27,0,0,1,.14,2.84,26.68,26.68,0,0,1-.14,2.83c-.09.95-.23,1.88-.41,2.81a25.71,25.71,0,0,1-.69,2.75c-.28.91-.59,1.81-1,2.68s-.77,1.73-1.22,2.56a26.21,26.21,0,0,1-1.46,2.44,26.76,26.76,0,0,1-1.68,2.28c-.61.73-1.24,1.43-1.91,2.11l-11,11.05A5.31,5.31,0,0,1,520.92,269.81Zm-25.09-38.62,25.09,25.12,7.1-7.1a18.14,18.14,0,0,0,2.19-2.69,17.33,17.33,0,0,0,1.62-3.07,17,17,0,0,0,1-3.33,17.76,17.76,0,0,0-1-10.24,18,18,0,0,0-1.64-3.06,17.71,17.71,0,0,0-7.94-6.53,17.89,17.89,0,0,0-13.55,0,18.06,18.06,0,0,0-3.07,1.63,18.83,18.83,0,0,0-2.68,2.19Z" transform="translate(-9.07 -8.24)"/><path d="M308.6,449.37a5.55,5.55,0,0,1-1.29-.15,5.93,5.93,0,0,1-1.22-.44,5.64,5.64,0,0,1-1.08-.72,5.66,5.66,0,0,1-1.54-2.08,5.82,5.82,0,0,1-.37-1.25,5.53,5.53,0,0,1-.06-1.29,5.14,5.14,0,0,1,.23-1.28l14.5-47.54a5.5,5.5,0,0,1,.58-1.31,5.73,5.73,0,0,1,.91-1.11,5.41,5.41,0,0,1,1.16-.85,5.34,5.34,0,0,1,1.32-.52,5.77,5.77,0,0,1,1.43-.17,5.17,5.17,0,0,1,1.41.21,5.74,5.74,0,0,1,1.33.55,5.29,5.29,0,0,1,1.13.88l33,33a6,6,0,0,1,.88,1.13,5.85,5.85,0,0,1,.55,1.32,5.24,5.24,0,0,1,.2,1.42,5.76,5.76,0,0,1-.16,1.43A5.43,5.43,0,0,1,361,432a5.31,5.31,0,0,1-.84,1.15A5.39,5.39,0,0,1,359,434a5.65,5.65,0,0,1-1.3.59l-47.49,14.52A5.47,5.47,0,0,1,308.6,449.37Zm17.13-42.61L317,435.38l28.59-8.74Z" transform="translate(-9.07 -8.24)"/><path class="cls-3" d="M115.49,10.24H307.31" transform="translate(-9.07 -8.24)"/></svg>