<svg id="Camada_1" data-name="Camada 1" xmlns="http://www.w3.org/2000/svg" xmlns:xlink="http://www.w3.org/1999/xlink" viewBox="0 0 633.57 929.82"><defs><style>.cls-1,.cls-11,.cls-3,.cls-7{fill:none;}.cls-2{clip-path:url(#clip-path);}.cls-11,.cls-3,.cls-7,.cls-8{stroke:#000;}.cls-3{stroke-miterlimit:71.56;}.cls-3,.cls-7,.cls-8{stroke-width:27.21px;}.cls-4{clip-path:url(#clip-path-2);}.cls-5,.cls-8{fill:#80807f;}.cls-6{clip-path:url(#clip-path-3);}.cls-7,.cls-8{stroke-linecap:round;stroke-linejoin:round;}.cls-9{fill:#fff;}.cls-10{clip-path:url(#clip-path-4);}.cls-11{stroke-miterlimit:4;stroke-width:4px;}</style><clipPath id="clip-path" transform="translate(-6.22 -5.19)"><rect class="cls-1" x="6.22" y="181.06" width="194.45" height="193.33"/></clipPath><clipPath id="clip-path-2" transform="translate(-6.22 -5.19)"><rect class="cls-1" x="446" y="181.06" width="194.46" height="193.33"/></clipPath><clipPath id="clip-path-3" transform="translate(-6.22 -5.19)"><rect class="cls-1" x="292.67" y="5.1" width="64" height="133.29"/></clipPath><clipPath id="clip-path-4" transform="translate(-6.22 -5.19)"><rect class="cls-1" x="176.67" y="399.72" width="384" height="535.26"/></clipPath></defs><g class="cls-2"><path class="cls-3" d="M20.36,195.1H186V360.71H20.36Z" transform="translate(-6.22 -5.19)"/></g><path class="cls-3" d="M240.44,195.1H406.1V360.71H240.44Z" transform="translate(-6.22 -5.19)"/><g class="cls-4"><path class="cls-3" d="M460.52,195.1H626.18V360.71H460.52Z" transform="translate(-6.22 -5.19)"/></g><path class="cls-5" d="M307.23,18.8,342,20.14l-8,104.17h-18.7Z" transform="translate(-6.22 -5.19)"/><g class="cls-6"><path class="cls-7" d="M307.23,18.8,342,20.14l-8,104.17h-18.7Z" transform="translate(-6.22 -5.19)"/></g><path class="cls-8" d="M432.14,33.88,461.56,52.4l-59.05,86.2-16.2-9.34Z" transform="translate(-6.22 -5.19)"/><path class="cls-8" d="M185.81,52.29l30.75-16.21,45.16,94.22-16.2,9.35Z" transform="translate(-6.22 -5.19)"/><path class="cls-9" d="M321.68,921.41H500.85V888.23l0-2.5.08-2.5.13-2.48.19-2.49.24-2.49.29-2.48.35-2.47.39-2.47.45-2.45.5-2.45.55-2.43.61-2.43.65-2.41.71-2.39.76-2.38.81-2.36.86-2.35.9-2.32,1-2.31,1-2.28,1.05-2.26,1.1-2.24,1.16-2.22,1.19-2.19,1.24-2.17,1.29-2.13,1.34-2.12,1.38-2.07,1.42-2.06,1.54-2.22,1.5-2.26,1.45-2.28,1.41-2.32,1.35-2.34,1.31-2.37,1.25-2.4,1.21-2.42,1.16-2.45,1.11-2.47,1.05-2.49,1-2.51.95-2.54.9-2.55.85-2.57.8-2.59.74-2.6.69-2.62.63-2.63.58-2.64.53-2.66.47-2.67.41-2.67.37-2.68.3-2.69.25-2.69.2-2.71.13-2.7.08-2.7,0-2.71V589.75l0-1.33-.08-1.32-.13-1.31-.19-1.31-.24-1.29-.29-1.29-.34-1.28-.4-1.26-.44-1.24-.49-1.23-.55-1.21-.59-1.17-.63-1.16-.69-1.14-.73-1.09-.77-1.08-.81-1-.86-1-.9-1-.93-.94-1-.89-1-.86-1-.81-1.07-.77-1.1-.73-1.13-.69-1.16-.64-1.18-.58-1.21-.55-1.22-.49-1.25-.44-1.26-.4-1.27-.34-1.29-.29-1.3-.24-1.31-.18-1.32-.14-1.31-.08-1.33,0-1.32,0-1.32.08-1.31.14-1.31.18-1.3.24-1.29.29-1.28.34-1.26.4-1.24.44-1.23.49-1.2.55-1.18.58-1.16.64-1.13.69-1.1.73-1.08.77-1,.81-1,.86-1,.89-.93.94-.89,1-.86,1-.82,1-.77,1.08-.73,1.09-.68,1.14-.64,1.16-.59,1.17-.54,1.21-.49,1.23-.45,1.24-.39,1.26-.34,1.28-.29,1.29-.24,1.29-.18,1.31-.14,1.31-.08,1.32,0,1.33v-28l0-1.32-.07-1.33-.14-1.32-.19-1.31-.23-1.3-.29-1.3-.35-1.28-.39-1.26L479,550l-.49-1.23-.55-1.21-.59-1.19-.64-1.16L476,544.1l-.74-1.1-.77-1.07-.82-1-.86-1-.9-1L471,538l-1-.9-1-.86-1-.81-1.07-.78-1.11-.73-1.13-.69-1.16-.64-1.19-.59-1.21-.54-1.23-.5-1.25-.45-1.27-.39-1.28-.34-1.29-.29-1.31-.24-1.31-.19-1.32-.13-1.32-.08-1.33,0-1.32,0-1.33.08-1.32.13-1.31.19-1.31.24-1.29.29-1.28.34-1.26.39-1.25.45-1.23.5-1.22.54-1.18.59-1.16.64-1.14.69-1.1.73-1.08.78-1,.81-1,.86-1,.9-.94.94-.9,1-.85,1-.82,1L421.1,543l-.73,1.1-.68,1.14-.64,1.16-.6,1.19-.54,1.21-.5,1.23-.44,1.25-.4,1.26-.34,1.28-.29,1.3-.24,1.3-.18,1.31-.14,1.32-.08,1.33,0,1.32V549.15l0-1.33-.08-1.32-.13-1.32-.19-1.31-.24-1.31-.29-1.29L414,540l-.39-1.27-.44-1.25-.5-1.22-.55-1.21-.58-1.19-.65-1.16-.68-1.14-.74-1.1-.77-1.08-.82-1-.86-1-.9-1-.93-.93-1-.9-1-.86-1-.82-1.08-.77-1.11-.74-1.13-.68-1.16-.64-1.19-.59-1.2-.54-1.24-.5-1.25-.45-1.26-.39-1.29-.34-1.29-.29-1.3-.24-1.32-.19-1.32-.14-1.32-.07-1.33,0-1.32,0-1.32.07-1.32.14-1.32.19-1.3.24-1.3.29-1.28.34-1.26.39-1.25.45-1.23.5-1.21.54L367,520l-1.16.64-1.14.68-1.1.74-1.08.77-1,.82-1,.86-1,.9-.94.93-.9,1-.86,1-.82,1-.78,1.08-.72,1.1-.69,1.14-.64,1.16-.6,1.19-.54,1.21-.49,1.22-.45,1.25-.39,1.27-.34,1.28-.3,1.29-.24,1.31-.18,1.31-.13,1.32-.09,1.32,0,1.33v-102l0-1.32-.08-1.32-.13-1.31-.19-1.31-.24-1.3-.29-1.29-.34-1.27-.4-1.26-.44-1.25-.49-1.22-.54-1.21-.59-1.18-.64-1.16-.69-1.13-.73-1.1-.77-1.07-.81-1-.86-1-.89-1-.94-.93-1-.9-1-.85-1-.82-1.08-.77-1.1-.73-1.13-.68-1.16-.64-1.18-.59-1.21-.54-1.22-.5L327,416l-1.26-.39-1.27-.34-1.29-.29-1.3-.24-1.31-.19-1.32-.13-1.31-.08-1.33,0-1.31,0-1.33.08-1.31.13-1.31.19L310,415l-1.28.29-1.29.34-1.26.39-1.24.44-1.23.5-1.2.54-1.18.59-1.16.64-1.13.68-1.1.73-1.07.77-1,.82-1,.85-1,.9-.94.93-.89,1-.86,1-.81,1-.78,1.07-.72,1.1-.69,1.13-.64,1.16-.59,1.18-.54,1.21-.49,1.22-.45,1.25-.39,1.26-.34,1.27-.29,1.29-.24,1.3L284,443.2l-.14,1.31-.08,1.32,0,1.32V642.78l-.77-1.66-.83-1.65-.86-1.63-.92-1.59-1-1.57-1-1.53-1.05-1.51-1.1-1.48-1.15-1.44L274,627.31l-1.23-1.37-1.26-1.33-1.31-1.3-1.34-1.26-1.38-1.21L266,619.66l-1.45-1.13-1.48-1.09-1.52-1-1.54-1-1.57-1-1.6-.91-1.63-.85-1.65-.81-1.67-.77-1.7-.71-1.72-.66-1.73-.6-1.76-.56-1.76-.51-1.79-.45-1.79-.4-1.81-.34-1.82-.3-1.82-.24-1.83-.18-1.84-.13-1.84-.08-1.83,0-1.84,0-1.84.1-1.83.14-1.83.2-1.31.18-1.29.24-1.29.29-1.27.34-1.26.39-1.24.45-1.22.49-1.21.54-1.17.58-1.16.64-1.13.68-1.1.72-1.07.77-1,.81-1,.85-1,.89-.94.93-.9,1-.85,1-.82,1-.77,1.06-.73,1.1-.69,1.12-.64,1.15-.59,1.18-.55,1.19-.5,1.22-.45,1.24-.4,1.26-.35,1.27-.3,1.28-.25,1.29-.19,1.3-.14,1.32-.09,1.31,0,1.32,0,1.31.06,1.32.12,1.31L191,644l.22,1.29.28,1.29.33,1.28.38,1.26.43,1.24.48,1.23.52,1.2.58,1.19.62,1.16.67,1.14.71,1.1.76,1.08.8,1,.84,1,.88,1,.92.94,1,.91,1,.87c17.65,24,29.71,7.06,34.14,28.92l.51,1.39.46,1.41.42,1.44.36,1.45.3,1.45.25,1.47.2,1.48.13,1.48.08,1.48,0,1.49v13l0,2.91.09,2.9.13,2.91.19,2.91.24,2.89.3,2.9.35,2.88.41,2.88.46,2.88.51,2.86.57,2.85.62,2.85.67,2.82.73,2.82.77,2.8.83,2.79.89,2.77.93,2.76,1,2.74,1,2.71,1.08,2.7,1.14,2.68,1.19,2.66,1.23,2.63,1.29,2.61,1.33,2.58,1.38,2.57,1.43,2.53,1.47,2.51,1.52,2.48,1.58,2.44,1.6,2.43,1.67,2.39,1.7,2.36,1.74,2.32,1.79,2.3L275,820l1.88,2.22,1.92,2.19,2,2.15,2,2.12,2,2.08,2.07,2,2.11,2,2.15,2,2.19,1.92,2.21,1.88,2.26,1.84,2.29,1.79,1.37,1.09,1.33,1.14,1.3,1.17,1.26,1.22,1.23,1.25,1.18,1.29,1.14,1.33,1.1,1.36,1.05,1.4,1,1.43,1,1.47.92,1.49.87,1.52.82,1.54.77,1.58.72,1.59.68,1.61.62,1.64.57,1.66.52,1.67.46,1.69.41,1.7.36,1.72.3,1.72.24,1.74.2,1.73.14,1.75.08,1.75,0,1.75v33.19Z" transform="translate(-6.22 -5.19)"/><g class="cls-10"><path class="cls-7" d="M522.5,820.32l1.54-2.23,1.5-2.25,1.45-2.28,1.4-2.32,1.35-2.34,1.31-2.37,1.26-2.4,1.21-2.42,1.16-2.45,1.11-2.47,1.05-2.49,1-2.51.95-2.54.9-2.55.85-2.57.79-2.59.75-2.6.69-2.62.63-2.63.58-2.64.53-2.66.46-2.67.42-2.67.37-2.68.3-2.69.25-2.7.19-2.7.14-2.7.08-2.7,0-2.71m-263-297V682.85m65.62-235.71V651.58m197.33-61.85V744.17M481.14,561.69v89.89M415.28,549.14V651.58m-176,69.15v-13m82.41,180.51v33.19m179.17-33.19v33.19M349.43,447.14l0-1.32-.08-1.32-.13-1.32-.18-1.3-.24-1.31-.3-1.28-.34-1.28-.39-1.26-.44-1.24-.5-1.23-.54-1.21-.59-1.17-.64-1.17-.68-1.13-.73-1.09-.77-1.08-.82-1-.85-1-.9-1-.94-.94-1-.9-1-.85-1-.81-1.07-.78-1.11-.72-1.13-.69-1.16-.64-1.18-.58-1.2-.55-1.23-.49L327,416l-1.27-.4-1.27-.34-1.29-.29-1.3-.24-1.31-.18-1.31-.14-1.32-.07-1.32,0-1.32,0-1.32.07-1.32.14-1.31.18-1.29.24-1.29.29-1.28.34-1.26.4-1.25.44-1.22.49-1.21.55-1.18.58-1.16.64-1.13.69-1.1.72-1.07.78-1,.81-1,.85-1,.9-.94.94-.89,1-.86,1-.81,1-.78,1.08-.72,1.09-.69,1.13-.63,1.17-.59,1.17-.55,1.21-.49,1.23-.45,1.24L285.1,438l-.34,1.28-.29,1.28-.24,1.31-.18,1.3-.13,1.32-.09,1.32,0,1.32M300,844.22l-2.28-1.8-2.26-1.84-2.22-1.88-2.19-1.92-2.14-2-2.11-2-2.07-2-2-2.08-2-2.12-2-2.15-1.92-2.2L275,820l-1.83-2.26-1.79-2.29-1.75-2.33-1.7-2.36-1.66-2.39L264.65,806l-1.57-2.45L261.56,801l-1.48-2.5L258.66,796l-1.39-2.56-1.33-2.59-1.28-2.61-1.24-2.63L252.23,783l-1.13-2.68-1.09-2.7-1-2.72-1-2.73-.93-2.76-.88-2.77-.83-2.79-.78-2.8-.73-2.82-.67-2.83-.62-2.84-.57-2.85-.51-2.87-.45-2.87L240.6,741l-.34-2.89-.3-2.89-.25-2.9-.19-2.9-.13-2.91-.08-2.9,0-2.92M219.56,606.37l-1.3.18-1.3.24-1.29.29-1.27.34-1.26.39-1.24.45-1.22.49-1.2.54-1.18.59-1.15.63-1.13.68-1.1.72-1.08.77-1,.81-1,.85-1,.89-.93.93-.9,1-.86,1-.82,1-.77,1.06-.73,1.1-.69,1.12-.64,1.15-.59,1.18-.55,1.19-.5,1.23-.45,1.23-.4,1.26-.35,1.27-.3,1.28-.24,1.3-.2,1.3-.14,1.31-.09,1.31,0,1.32,0,1.31.06,1.32.12,1.31L191,644l.22,1.29.28,1.29.33,1.28.38,1.26.43,1.24.48,1.23.53,1.21.57,1.18.62,1.16.67,1.14.71,1.11.76,1.07.8,1,.84,1,.88,1,.92,1,1,.91,1,.86,1,.83,1.06.78,1.09.74,1.12.7,1.14.66M415.29,549.13l0-1.32-.08-1.33-.13-1.31-.19-1.32-.23-1.3-.3-1.29L414,540l-.4-1.26-.44-1.25-.5-1.23-.54-1.21-.59-1.19-.64-1.16-.69-1.13-.73-1.11-.78-1.07-.82-1.05-.85-1-.9-1-.94-.94-1-.89-1-.86-1.05-.82-1.07-.78-1.11-.73-1.14-.68-1.16-.65-1.19-.58-1.2-.55-1.23-.5-1.25-.44-1.27-.39-1.28-.35-1.29-.29-1.31-.24-1.31-.19-1.32-.13-1.33-.07-1.32,0-1.33,0-1.32.07-1.32.13-1.31.19-1.31.24-1.29.29-1.28.35-1.27.39-1.25.44-1.23.5-1.21.55-1.18.58-1.16.65-1.14.68-1.1.73-1.08.78-1,.82-1,.86-1,.89-.94.94-.9,1-.86,1-.81,1.05-.78,1.07-.73,1.11-.69,1.13-.64,1.16-.59,1.19-.54,1.21-.5,1.23-.44,1.25-.4,1.26-.34,1.29-.29,1.29-.24,1.3-.19,1.32-.13,1.31-.08,1.33,0,1.32m65.86,12.56,0-1.33.09-1.32.13-1.32.18-1.31.24-1.31.29-1.29.34-1.28.4-1.27.45-1.24.49-1.24.55-1.21.59-1.18.64-1.16.69-1.14.72-1.11.78-1.07.82-1,.86-1,.9-1,.94-.94,1-.9,1-.86,1-.82,1.08-.78,1.1-.72,1.14-.69,1.16-.64,1.19-.59,1.21-.55,1.23-.49,1.25-.45,1.26-.39,1.28-.35,1.3-.29,1.3-.24,1.31-.18,1.33-.13,1.32-.08,1.32,0,1.33,0,1.32.08,1.32.13,1.32.18,1.3.24,1.29.29,1.29.35,1.27.39,1.24.45,1.23.49,1.21.55,1.19.59,1.16.64,1.14.69,1.1.72,1.08.78,1,.82,1,.86,1,.9.93.94.9,1,.86,1,.82,1,.78,1.07.73,1.11.68,1.14.65,1.16.58,1.18.55,1.21L479,550l.44,1.24.39,1.27.35,1.28.29,1.29.24,1.31.19,1.31L481,559l.08,1.32,0,1.33m-241.87,146,0-1.49-.09-1.48-.14-1.48-.19-1.48-.25-1.47-.3-1.46-.36-1.44-.41-1.44-.47-1.41-.51-1.39-.58-1.38-.62-1.36c-11-10.12-17.15-16.26-27.86-22.85m12.08-61.21,1.83-.2,1.83-.14,1.84-.09,1.84,0,1.84,0,1.84.08,1.84.13,1.82.18,1.83.24,1.82.29,1.8.35,1.8.39,1.78.46,1.77.5,1.75.56,1.74.61,1.71.66,1.7.71,1.67.76,1.66.81,1.63.86,1.59.91,1.58,1,1.54,1,1.52,1,1.47,1.09,1.46,1.13,1.41,1.17,1.38,1.22,1.34,1.26,1.3,1.29,1.27,1.34,1.22,1.37,1.19,1.41,1.14,1.44,1.1,1.48,1,1.51,1,1.53,1,1.57.91,1.59.87,1.62.82,1.65.77,1.67m37.88,245.45,0-1.75-.09-1.75-.13-1.75-.19-1.74-.25-1.73-.31-1.72-.35-1.72-.41-1.7-.47-1.69L319,871l-.57-1.65-.62-1.64-.68-1.61-.72-1.6-.77-1.57-.82-1.54-.87-1.53-.93-1.49-1-1.46-1-1.43-1.05-1.4-1.1-1.36-1.14-1.33-1.18-1.29-1.23-1.26-1.26-1.21-1.3-1.18-1.33-1.13-1.37-1.09m200.82,44,0-2.5.07-2.49.14-2.5.18-2.49.24-2.48.29-2.48.35-2.47.39-2.47.46-2.45.5-2.45.55-2.43.6-2.43.66-2.4.71-2.4.75-2.38.81-2.36.86-2.34.91-2.33.95-2.3,1-2.29,1.06-2.26,1.1-2.24,1.15-2.22,1.19-2.19,1.25-2.16,1.28-2.14,1.34-2.11,1.38-2.08,1.42-2.06M283.81,682.85l0,2.24-.08,2.23-.14,2.24m197.58-99.83,0-1.32.09-1.32.13-1.31.18-1.31.24-1.29.29-1.29.34-1.28.4-1.26.44-1.25.49-1.22.55-1.2.59-1.18.63-1.16.69-1.14.72-1.1.78-1.07.81-1,.86-1,.9-1,.93-.94,1-.89,1-.86,1-.81,1.07-.77,1.1-.73,1.13-.69,1.16-.64,1.18-.59,1.21-.54,1.22-.49,1.25-.44,1.26-.4,1.27-.34,1.3-.29,1.3-.24,1.31-.18,1.31-.14,1.32-.08,1.32,0,1.32,0,1.32.08,1.31.14,1.31.18,1.3.24,1.29.29,1.28.34,1.26.4,1.24.44,1.23.49,1.21.54,1.18.59,1.15.64,1.13.69,1.1.73,1.08.77,1,.81,1,.86,1,.89.93.94.9,1,.86,1,.81,1,.77,1.07.73,1.1.68,1.14.64,1.16.59,1.18.54,1.2.5,1.22.44,1.25.39,1.26.34,1.28.29,1.29.24,1.29.19,1.31.13,1.31.08,1.32,0,1.32" transform="translate(-6.22 -5.19)"/></g><path class="cls-11" d="M6.22,183.68H198" transform="translate(-6.22 -5.19)"/></svg>