<svg id="Camada_1" data-name="Camada 1" xmlns="http://www.w3.org/2000/svg" xmlns:xlink="http://www.w3.org/1999/xlink" viewBox="0 0 674.97 674.97"><defs><style>.cls-1,.cls-3{fill:none;}.cls-2{clip-path:url(#clip-path);}.cls-3{stroke:#000;stroke-width:4px;}</style><clipPath id="clip-path" transform="translate(-5.78 -7.57)"><rect class="cls-1" x="5.78" y="7.57" width="674.97" height="674.97"/></clipPath></defs><g class="cls-2"><path d="M343.1,7.57C156.64,7.57,5.78,158.6,5.78,345.06S156.64,682.55,343.1,682.55s337.65-151,337.65-337.49S529.56,7.57,343.1,7.57Zm.17,607.48c-149.18,0-270-120.82-270-270s120.81-270,270-270,270,120.82,270,270S492.43,615.05,343.27,615.05Z" transform="translate(-5.78 -7.57)"/></g><path d="M360.14,176.32H309.52V378.81l177,106.31L512,443.6,360.14,353.5Z" transform="translate(-5.78 -7.57)"/><path class="cls-3" d="M272.92,78.87l58.8-34" transform="translate(-5.78 -7.57)"/></svg>